Coordinates
version=1
nRows=21
nColumns=12
inDegrees=yes

Units are S.I. units (second, meters, Newtons, ...)
Angles are in degrees

endheader
time	SC_y	SC_z	SC_x	AC_y	AC_z	AC_x	GH_y	GH_z	GH_yy	EL_x	PS_y
       0.0              -50.01          18.57          23.17          60.79         -6.321          10.61         -9.801          65.94         -125.8          123.8          70.29
   0.01805               -50.0          18.57          23.17          60.79          -6.32          10.61         -9.807          65.94         -125.8          123.8           70.3
   0.03609              -49.99          18.58          23.18          60.78          -6.32          10.61         -9.814          65.94         -125.8          123.8          70.31
   0.05414              -49.99          18.58          23.19          60.78          -6.32          10.62         -9.821          65.94         -125.7          123.8          70.32
   0.07218              -49.98          18.58           23.2          60.78         -6.319          10.62         -9.828          65.94         -125.7          123.7          70.33
   0.09023              -49.97          18.59           23.2          60.78         -6.319          10.62         -9.836          65.94         -125.7          123.7          70.34
    0.1083              -49.97          18.59          23.21          60.78         -6.318          10.62         -9.845          65.94         -125.7          123.7          70.35
    0.1263              -49.96          18.59          23.22          60.77         -6.317          10.62         -9.854          65.94         -125.6          123.7          70.36
    0.1444              -49.95           18.6          23.23          60.77         -6.317          10.62         -9.864          65.94         -125.6          123.7          70.37
    0.1624              -49.94           18.6          23.24          60.77         -6.316          10.62         -9.875          65.94         -125.6          123.7          70.39
    0.1805              -49.93          18.61          23.25          60.77         -6.316          10.62         -9.886          65.94         -125.5          123.7           70.4
    0.1985              -49.92          18.61          23.26          60.76         -6.315          10.62         -9.898          65.94         -125.5          123.7          70.41
    0.2165              -49.91          18.62          23.28          60.76         -6.314          10.62         -9.912          65.94         -125.5          123.7          70.43
    0.2346              -49.89          18.63          23.29          60.76         -6.313          10.62         -9.926          65.94         -125.4          123.6          70.45
    0.2526              -49.88          18.63          23.31          60.76         -6.312          10.62         -9.941          65.94         -125.4          123.6          70.47
    0.2707              -49.87          18.64          23.32          60.75         -6.311          10.63         -9.958          65.93         -125.3          123.6          70.49
    0.2887              -49.85          18.65          23.34          60.75          -6.31          10.63         -9.976          65.93         -125.3          123.6          70.51
    0.3068              -49.83          18.66          23.36          60.74         -6.309          10.63         -9.996          65.93         -125.2          123.6          70.53
    0.3248              -49.81          18.67          23.38          60.74         -6.308          10.63         -10.02          65.93         -125.1          123.6          70.56
    0.3429              -49.79          18.68          23.41          60.73         -6.306          10.63         -10.04          65.93         -125.1          123.5          70.59
    0.3609              -49.77          18.69          23.43          60.73         -6.305          10.63         -10.07          65.93         -125.0          123.5          70.62
